<svg xmlns="http://www.w3.org/2000/svg" viewBox="0 0 27 27" width="27" height="27">
	<defs>
		<clipPath clipPathUnits="userSpaceOnUse" id="cp1">
			<path d="M-593 -1641L847 -1641L847 5215L-593 5215Z" />
		</clipPath>
	</defs>
	<style>
		tspan { white-space:pre }
		.shp0 { fill: #2d2d2d } 
	</style>
	<g id="Home--Main" clip-path="url(#cp1)">
		<g id="features copy">
			<g id="Group">
				<g id="icon/maps/track_24px">
					<path id="album" fill-rule="evenodd" class="shp0" d="M0.65 4.51C0.65 2.38 2.38 0.65 4.51 0.65L22.49 0.65C24.62 0.65 26.35 2.38 26.35 4.51L26.35 22.49C26.35 24.62 24.62 26.35 22.49 26.35L4.51 26.35C2.38 26.35 0.65 24.62 0.65 22.49L0.65 4.51ZM23.78 4.51C23.78 3.8 23.2 3.22 22.49 3.22L21.21 3.22L21.21 13.51L18.13 13.51L16.07 10.76L14.01 13.51L10.93 13.51L10.93 3.22L4.51 3.22C3.8 3.22 3.22 3.8 3.22 4.51L3.22 22.49C3.22 23.2 3.8 23.78 4.51 23.78L22.49 23.78C23.2 23.78 23.78 23.2 23.78 22.49L23.78 4.51ZM18.64 3.22L13.5 3.22L13.5 10.08L16.07 6.64L18.64 10.08L18.64 3.22Z" />
				</g>
			</g>
		</g>
	</g>
</svg>