<svg xmlns="http://www.w3.org/2000/svg" viewBox="0 0 25 29" width="25" height="29">
	<defs>
		<clipPath clipPathUnits="userSpaceOnUse" id="cp1">
			<path d="M-399 -2041L1041 -2041L1041 4815L-399 4815Z" />
		</clipPath>
	</defs>
	<style>
		tspan { white-space:pre }
		.shp0 { fill: #2d2d2d } 
	</style>
	<g id="Home--Main" clip-path="url(#cp1)">
		<g id="features copy 3">
			<g id="Group">
				<g id="icon/maps/track_24px">
					<path id="home" fill-rule="evenodd" class="shp0" d="M24.06 28.74L15.07 28.74L15.07 21.03C15.07 19.61 13.92 18.46 12.5 18.46C11.08 18.46 9.93 19.61 9.93 21.03L9.93 28.74L0.94 28.74L0.94 10.09L9.65 1.39C11.15 -0.12 13.59 -0.12 15.1 1.39L24.06 10.35L24.06 28.74ZM11.46 3.2L3.51 11.16L3.51 26.17L7.36 26.17L7.36 21.03C7.36 18.2 9.66 15.89 12.5 15.89C15.34 15.89 17.64 18.2 17.64 21.03L17.64 26.17L21.49 26.17L21.49 11.42L13.28 3.2C12.78 2.7 11.96 2.7 11.46 3.2Z" />
				</g>
			</g>
		</g>
	</g>
</svg>