<svg xmlns="http://www.w3.org/2000/svg" viewBox="0 0 31 31" width="31" height="31">
	<defs>
		<clipPath clipPathUnits="userSpaceOnUse" id="cp1">
			<path d="M-200 -1633L1240 -1633L1240 5223L-200 5223Z" />
		</clipPath>
	</defs>
	<style>
		tspan { white-space:pre }
		.shp0 { fill: #37474f } 
	</style>
	<g id="Home--Main" clip-path="url(#cp1)">
		<g id="features">
			<g id="Group">
				<g id="icon/maps/track_24px">
					<path id="icon/maps/track_24px" class="shp0" d="M25.2 5.76C24.65 6.31 24.6 7.17 25.1 7.79C27.33 10.59 28.5 14.42 27.45 18.43C26.23 23.13 22.56 26.63 17.9 27.57C10.05 29.13 3.17 23.06 3.17 15.48C3.17 9.2 7.86 4.03 13.94 3.28L13.94 6.39C9.13 7.2 5.59 11.71 6.36 16.9C6.96 20.91 10.29 24.14 14.33 24.63C19.93 25.33 24.71 20.96 24.71 15.48C24.71 13.56 24.13 11.79 23.13 10.31C22.6 9.54 21.48 9.49 20.82 10.14L20.8 10.16C20.28 10.68 20.23 11.49 20.63 12.11C21.56 13.53 21.93 15.34 21.39 17.22C20.79 19.33 19.02 21 16.86 21.48C12.86 22.36 9.33 19.34 9.33 15.48C9.33 12.62 11.29 10.23 13.94 9.54L13.94 12.83C13.02 13.37 12.4 14.34 12.4 15.48C12.4 17.17 13.79 18.56 15.48 18.56C17.17 18.56 18.56 17.17 18.56 15.48C18.56 14.34 17.94 13.36 17.02 12.83L17.02 1.19C17.02 0.59 16.53 0.09 15.93 0.09C7.68 -0.21 0.57 6.34 0.12 14.56C-0.43 24.63 8.45 32.74 18.6 30.56C24.57 29.28 29.19 24.71 30.53 18.76C31.62 13.89 30.22 9.28 27.5 5.88C26.93 5.16 25.85 5.11 25.2 5.76Z" />
				</g>
			</g>
		</g>
	</g>
</svg>