<svg xmlns="http://www.w3.org/2000/svg" viewBox="0 0 22 24" width="22" height="24">
	<defs>
		<clipPath clipPathUnits="userSpaceOnUse" id="cp1">
			<path d="M-245 -692L1195 -692L1195 6164L-245 6164Z" />
		</clipPath>
	</defs>
	<style>
		tspan { white-space:pre }
		.shp0 { fill: #262626 } 
	</style>
	<g id="Home--Main" clip-path="url(#cp1)">
		<g id="facebook copy 2">
			<path id="icon" fill-rule="evenodd" class="shp0" d="M6.56 0.87L15.09 0.87C18.62 0.87 21.48 3.89 21.48 7.6L21.48 16.58C21.48 20.3 18.62 23.31 15.09 23.31L6.56 23.31C3.03 23.31 0.17 20.3 0.17 16.58L0.17 7.6C0.17 3.89 3.03 0.87 6.56 0.87ZM6.56 3.12C4.21 3.12 2.3 5.13 2.3 7.6L2.3 16.58C2.3 19.06 4.21 21.07 6.56 21.07L15.09 21.07C17.44 21.07 19.35 19.06 19.35 16.58L19.35 7.6C19.35 5.13 17.44 3.12 15.09 3.12L6.56 3.12ZM10.82 17.7C7.88 17.7 5.49 15.19 5.49 12.09C5.49 8.99 7.88 6.48 10.82 6.48C13.77 6.48 16.15 8.99 16.15 12.09C16.15 15.19 13.77 17.7 10.82 17.7ZM10.82 15.46C12.59 15.46 14.02 13.95 14.02 12.09C14.02 10.23 12.59 8.73 10.82 8.73C9.06 8.73 7.63 10.23 7.63 12.09C7.63 13.95 9.06 15.46 10.82 15.46ZM15.09 6.48C15.09 5.86 15.56 5.36 16.15 5.36C16.74 5.36 17.22 5.86 17.22 6.48C17.22 7.1 16.74 7.6 16.15 7.6C15.56 7.6 15.09 7.1 15.09 6.48Z" />
		</g>
	</g>
</svg>