<svg xmlns="http://www.w3.org/2000/svg" viewBox="0 0 21 19" width="21" height="19">
	<defs>
		<clipPath clipPathUnits="userSpaceOnUse" id="cp1">
			<path d="M-199 -695L1241 -695L1241 6161L-199 6161Z" />
		</clipPath>
	</defs>
	<style>
		tspan { white-space:pre }
		.shp0 { fill: #37474f } 
	</style>
	<g id="Home--Main" clip-path="url(#cp1)">
		<g id="facebook copy">
			<path id="icon/social/twitter_24px" fill-rule="evenodd" class="shp0" d="M12.15 3.07C14.63 2.54 16.09 3.86 16.09 3.86L18.03 3.07C17.89 3.9 16.69 4.78 16.69 4.78L18.45 4.46L16.69 6.03C16.73 6.77 16.8 8.28 16.13 9.87C13.4 16.35 7.66 16.08 7.66 16.08C4.56 16.12 2.53 14.55 2.53 14.55C6.14 14.64 7.25 13.16 7.25 13.16C4.56 12.74 4.15 10.85 4.15 10.85L5.67 10.85C2.8 9.92 3.08 7.56 3.08 7.56C3.73 8.02 4.52 7.88 4.52 7.88C2.11 6.22 3.5 3.49 3.5 3.49C7.06 7.65 10.25 6.91 10.25 6.91C9.88 3.53 12.15 3.07 12.15 3.07ZM8.53 4.85C8.39 4.81 8.25 4.76 8.1 4.71C6.88 4.27 5.61 3.38 4.32 1.87C3.51 0.92 1.98 1.1 1.41 2.22C1.31 2.41 1.19 2.69 1.08 3.05C0.74 4.15 0.65 5.32 1.02 6.49C0.9 6.69 0.81 6.93 0.78 7.2C0.77 7.25 0.77 7.25 0.77 7.34C0.71 8.25 0.91 9.31 1.6 10.35C1.7 10.49 1.81 10.63 1.92 10.77C1.9 10.95 1.91 11.13 1.95 11.32C2.07 11.85 2.36 12.5 2.9 13.14C2.62 13.16 2.31 13.16 1.98 13.15C0.27 13.11 -0.49 15.27 0.86 16.32C1.23 16.61 1.85 16.99 2.7 17.36C4.12 17.98 5.72 18.35 7.45 18.33C8.01 18.34 8.78 18.28 9.69 18.07C11.1 17.76 12.49 17.17 13.8 16.25C15.64 14.95 17.15 13.07 18.2 10.58C18.79 9.18 18.98 7.92 18.96 6.52L20.24 5.38C21.06 4.65 20.96 3.53 20.36 2.86C20.58 1.5 19.23 0.42 17.95 0.94L16.71 1.44C16.65 1.41 16.58 1.37 16.51 1.34C15.24 0.73 13.74 0.49 12.06 0.82C10.52 0.95 8.92 2.41 8.53 4.85ZM3.82 6C3.82 6 3.82 6 3.81 6.01L3.82 6Z" />
		</g>
	</g>
</svg>